<?xml version="1.0" encoding="UTF-8" standalone="no"?>
<!-- Created with Inkscape (http://www.inkscape.org/) -->

<svg
   xmlns:dc="http://purl.org/dc/elements/1.1/"
   xmlns:cc="http://creativecommons.org/ns#"
   xmlns:rdf="http://www.w3.org/1999/02/22-rdf-syntax-ns#"
   xmlns:svg="http://www.w3.org/2000/svg"
   xmlns="http://www.w3.org/2000/svg"
   xmlns:sodipodi="http://sodipodi.sourceforge.net/DTD/sodipodi-0.dtd"
   xmlns:inkscape="http://www.inkscape.org/namespaces/inkscape"
   width="543.29919"
   height="543.29919"
   viewBox="0 0 543.29906 543.2992"
   id="svg2"
   version="1.1"
   inkscape:version="0.91 r13725"
   sodipodi:docname="title.svg">
  <defs
     id="defs4" />
  <sodipodi:namedview
     id="base"
     pagecolor="#ffffff"
     bordercolor="#666666"
     borderopacity="1.0"
     inkscape:pageopacity="0.0"
     inkscape:pageshadow="2"
     inkscape:zoom="0.98994949"
     inkscape:cx="16.709599"
     inkscape:cy="281.45503"
     inkscape:document-units="px"
     inkscape:current-layer="layer1"
     showgrid="false"
     units="px"
     inkscape:window-width="1339"
     inkscape:window-height="742"
     inkscape:window-x="27"
     inkscape:window-y="0"
     inkscape:window-maximized="1" />
  <metadata
     id="metadata7">
    <rdf:RDF>
      <cc:Work
         rdf:about="">
        <dc:format>image/svg+xml</dc:format>
        <dc:type
           rdf:resource="http://purl.org/dc/dcmitype/StillImage" />
        <dc:title></dc:title>
      </cc:Work>
    </rdf:RDF>
  </metadata>
  <g
     inkscape:label="Layer 1"
     inkscape:groupmode="layer"
     id="layer1"
     transform="translate(0,-509.06266)">
    <path
       style="fill:#56c6d8;fill-opacity:0;stroke:none"
       d="M 234.35694,535.583 C 183.34266,528.15412 130.93323,502.48063 91.98323,465.83926 30.060382,407.5867 -0.81596688,318.3655 12.024878,234.78926 34.937893,85.657041 174.92081,-14.252264 321.89383,13.628042 c 91.96498,17.445457 169.80145,85.059296 199.9436,173.684048 10.91654,32.09709 13.50923,48.87134 13.42747,86.87311 -0.0548,25.44138 -1.03201,38.79709 -3.76967,51.51778 -23.40378,108.74695 -108.0888,190.66913 -216.12636,209.07526 -19.36407,3.29899 -61.04087,3.71301 -81.01193,0.80476 z"
       id="path4186"
       inkscape:connector-curvature="0"
       transform="translate(-6.1035156e-5,509.06266)" />
    <ellipse
       style="fill:#64a3d8;fill-opacity:1;stroke:none"
       id="path4254"
       cx="271.73099"
       cy="780.6308"
       r="269.71072" />
    <path
       style="fill:#000000;fill-opacity:1;stroke:none"
       d="M 240.44937,539.0298 C 177.3772,531.42969 121.1385,503.33138 77.156994,457.44474 1.5524792,378.56527 -18.66537,262.05148 25.828263,161.64153 45.709902,116.77411 80.490984,75.559026 121.8121,47.902058 179.64497,9.1934766 248.91696,-5.4154066 318.55119,6.4114299 388.61032,18.310432 453.092,59.862916 493.90795,119.41266 c 52.68154,76.8614 61.71803,176.28179 23.79645,261.81092 -13.72905,30.96481 -34.77617,60.75696 -59.99464,84.92229 -36.59243,35.0643 -84.4951,60.05955 -133.06629,69.43297 -26.46577,5.10744 -59.28395,6.4526 -84.1941,3.45096 z"
       id="path3335"
       inkscape:connector-curvature="0"
       transform="translate(-6.1035156e-5,509.06266)" />
    <flowRoot
       xml:space="preserve"
       id="flowRoot4136"
       style="fill:black;stroke:none;stroke-opacity:1;stroke-width:1px;stroke-linejoin:miter;stroke-linecap:butt;fill-opacity:1;font-family:Montserrat;font-style:normal;font-weight:normal;font-size:40px;line-height:125%;letter-spacing:0px;word-spacing:0px;-inkscape-font-specification:Montserrat;font-stretch:normal;font-variant:normal;"><flowRegion
         id="flowRegion4138"><rect
           id="rect4140"
           width="424.26407"
           height="219.20311"
           x="40.406101"
           y="190.75595"
           style="-inkscape-font-specification:Montserrat;font-family:Montserrat;font-weight:normal;font-style:normal;font-stretch:normal;font-variant:normal;" /></flowRegion><flowPara
         id="flowPara4142" /></flowRoot>    <text
       xml:space="preserve"
       style="font-style:normal;font-weight:normal;font-size:40px;line-height:125%;font-family:Montserrat;letter-spacing:0px;word-spacing:0px;fill:#ffffff;fill-opacity:1;stroke:none;stroke-width:1px;stroke-linecap:butt;stroke-linejoin:miter;stroke-opacity:1"
       x="64.649712"
       y="796.79321"
       id="text4144"
       sodipodi:linespacing="125%"><tspan
         sodipodi:role="line"
         id="tspan4146"
         x="50"
         y="50"
         style="font-style:normal;font-variant:normal;font-weight:normal;font-stretch:normal;font-size:87.5px;font-family:Montserrat;-inkscape-font-specification:Montserrat">PLANETS</tspan></text>
  </g>
</svg>
